<svg id="Layer_1" data-name="Layer 1" xmlns="http://www.w3.org/2000/svg" viewBox="0 0 2318.55 1863.88">
  <g>
    <path d="M2383.52,883.15c-28.78-103.37-99.88-187.31-148.86-282.52-92.48-71.11-195.87-129.8-307.39-169.83-78.09-28-169.41-35.36-260.36,4.28l-52.84,7.38q-72.87-28-232-27.19c-84.41,35.49-151.61,56.1-207.57,66.86l4.58,2.63,181.24-48.13L1443.85,451l71.51,34.59,55.58,14.76,78.09-3.5L1711.59,526l32.25,3.11v25.65L1705,568.36l-68-5.84-203.26,6.62-23.31,56-20.22,4.27-.76,12.44,41.19,28,38.86,4.28,53.63,35.76,63.73,30.31,12,8.94,1.16,24.49-17.86,1.16-48.94,42.38-21.38-1.17-26.82-38.09-38.83-29.93-70.35-41.19-37.69-31.48-44.68-21-65.68-34.59L1133,609.58l-47.79,31.48-24.49,16.31-66.83,92.49L899,737.81l34.59-47L1007.08,615l-42.36-12V581.6l4.65-15.55h26.44l8.93,8.94,20.22,2.33,3.5-14.77L1023.79,526l61.4-16.32,77.5-20.57,10-6.64c-232.71,44-269.41-83.47-536.3-20.58-138.74,22.15-232,72.67-293.79,143C301,640.68,262.51,679.16,230.25,724.62,110.93,850.52,82.57,1088.34,92.67,1372.41c29.14,124,65.29,229.28,118.53,314.77l71.5,87.06c76.95,107.63,186.92,171.76,307,226.55,52.07,23.71,109.19,43.93,171.77,48.2,87,6.6,167.88,24.08,253.75,59.45,78.9,32.26,157.39,62.57,243.67,57.91l73.06-3.89c78.88-4.28,192-3.89,298.46-78.89,72.26-70.71,95.6-65.28,207.14-106.86,249.08-92.49,429.8-255.71,484.18-502.09,14.78-67.62,38.48-118.53,54-170.2,42.32-142.25,44.27-288,7.74-421.27ZM566.78,831.09,525.59,835l-3.89,61-41.2,3.5-8.92,86.27-37.7,7.38-9.33,66.46L394.24,1067l-7.38,37.7-34.2,5.44-14.38,120.46-17.87-8.16-12.83-153.88-24.88,3.88-8.93,44.69L252,1113.6,248.5,957c27.59-79.27,66.83-150,122.41-208.69h66.46l41.19-43.13,16.31,1.94,26.81,19.82,7.38-32.65,41.19-3.5-3.47,140.31Zm247.54-87.83L840,698.58l24.09-16.72,7,6.6-52.46,56-4.28-1.17Zm455,233.54-29.52,5.44,24.87,190L1220,1221.62l-27.2-2.33-49.36,39.24,1.18,19.82,5.43,8.94L1126,1321.87h-29.16l-11.65-32.25-7-19.82-12,.78-42.75,33.82-26,1.16-18.65,18.65-20.59-6.61-29.54-77.34-64.51,6.61v-15.52l45.86-17.5-16.33-117,38.08-8.56,10.88,13.22,56-10.11.79-121.24,12.05-63.34,16.31-4.28,29.53-70,28-.78,9.33-.39,6.6-38.09h28.38l9.71,9.71h9.72l2.33-31.47,21,1.94,98.71,190-1.6,13.22Zm505.6,63-47.8-90.54-.79-18.26,19.83,1.55L1780,1037.44ZM2049.7,877.33l-49.35,20.59-2.73,101.43h-26.8l-52.49,36.91-1.92,25.26-32.66-3.51-7.75,8.55-19.83-1.55-67.61-263.87,25.25,2.73,5-11.27,14-.78,32.63,9.32L1890.75,744l61.39-.79,18.67-28.36,19,5.83v34.59l13.23,10.5,47.42,7.77,31.84,31.86,18.26,50.13,2,21.76H2049.7v0Z" transform="translate(-90.78 -302.95)" fill="#d34434" fill-rule="evenodd"/>
    <path d="M1173.78,481.72l-1.16.77,1.87-.35-.71-.42ZM1061.86,451l-21-21-63.35,16.33,53.62,29.92L1061.86,451Z" transform="translate(-90.78 -302.95)" fill="#cc2229" fill-rule="evenodd"/>
    <path d="M1028.83,582.77c-40.81,54-63.72,101-86.27,155.05l38.08,6.61c15.94-40,45.09-61.79,76.18-80.83L1093,676c13.22-3.89,32.65-6.21,42.75-48.58l31.48-.78c41.58-3.49,80,9.73,115,39.25l49.38,19c31.08,12,37.31,67.23,117,75,17.86,1.93,31.84,24.86,52.84,27.2,17.48,1.94,54.79,2.32,50.51-14.77-2.33-8.93,5.07,1.16,2.34-7.77-19.06-61.4-193.14-85.5-223.46-137.18,16.72,4.28,35,4.66,50.52-5.44,33.81-22.15,71.92-35,122.42-35,74.23.39,143.78-14.38,203.24-47-63.74-22.55-138.34-12.83-201.29-43.92-58.29-28.36-113.49-30.31-161.67-24.47q28-64.71,164-129.42l-2.3-39.24c-157.79,11.27-291.08,57.52-380.07,167.49-14-30.31-29.53-66.85-59.45-68.39l-43.91-2.33c-47.8-2.72-91.32,5.83-130.19,17.87-2.71-1.95-10.49-.78-14.37-1.56-53.63-12.44-112.3-12.44-168.66-3.89-31.07,3.89-49,17.09-52.85,39.25l11.27,5.43c120.48-25.65,226.17,38.86,371.52,90.93l-10.15,35Z" transform="translate(-90.78 -302.95)" fill="#4caa9a" fill-rule="evenodd"/>
  </g>
</svg>
